<?xml version="1.0" encoding="utf-8"?>
<!-- Generator: Adobe Illustrator 16.0.0, SVG Export Plug-In . SVG Version: 6.00 Build 0)  -->
<!DOCTYPE svg PUBLIC "-//W3C//DTD SVG 1.1//EN" "http://www.w3.org/Graphics/SVG/1.1/DTD/svg11.dtd">
<svg version="1.1" id="Layer_1" xmlns="http://www.w3.org/2000/svg" xmlns:xlink="http://www.w3.org/1999/xlink" x="0px" y="0px"
	 width="190px" height="59px" viewBox="0 0 190 59" enable-background="new 0 0 190 59" xml:space="preserve">
<path fill="#9E9E9E" d="M184.786,53.484h0.864v-1.73h1.082h0.015l1.224,1.73H189l-1.341-1.879c0.176-0.047,0.334-0.117,0.479-0.205
	c0.146-0.086,0.269-0.193,0.373-0.318c0.104-0.125,0.186-0.27,0.244-0.434c0.059-0.162,0.09-0.347,0.09-0.551v-0.013
	c0-0.217-0.037-0.416-0.107-0.596c-0.069-0.181-0.174-0.339-0.305-0.478c-0.162-0.156-0.363-0.277-0.604-0.365
	c-0.242-0.088-0.52-0.131-0.83-0.131h-2.214V53.484z M185.65,50.979v-1.674h1.274c0.326,0,0.58,0.07,0.761,0.211
	c0.182,0.139,0.271,0.346,0.271,0.615v0.016c0,0.256-0.094,0.459-0.277,0.609c-0.186,0.148-0.434,0.223-0.746,0.223H185.65z
	 M178.869,53.484h3.71v-0.787h-2.845v-1.326h2.49v-0.789h-2.49v-1.277h2.81v-0.787h-3.675V53.484L178.869,53.484z M174.215,53.52
	h0.768l2.063-5.002h-0.942l-1.49,3.818l-1.496-3.818h-0.965L174.215,53.52z M169.012,53.424c0.262-0.092,0.484-0.232,0.67-0.418
	c0.184-0.188,0.327-0.422,0.43-0.699c0.102-0.279,0.152-0.604,0.152-0.973v-2.816h-0.865v2.859c0,0.459-0.11,0.805-0.336,1.037
	c-0.224,0.23-0.529,0.346-0.92,0.346c-0.395,0-0.703-0.119-0.929-0.361c-0.222-0.239-0.335-0.594-0.335-1.057v-2.824h-0.865v2.859
	c0,0.359,0.051,0.674,0.149,0.947c0.101,0.271,0.241,0.5,0.425,0.686c0.186,0.184,0.408,0.322,0.667,0.414
	c0.261,0.092,0.552,0.139,0.873,0.139C168.454,53.562,168.749,53.516,169.012,53.424 M162.316,53.363
	c0.317-0.137,0.592-0.322,0.824-0.559c0.23-0.232,0.41-0.505,0.539-0.814c0.127-0.311,0.191-0.639,0.191-0.99v-0.014
	c0-0.351-0.064-0.68-0.191-0.988c-0.129-0.311-0.306-0.582-0.533-0.814c-0.228-0.229-0.498-0.414-0.814-0.549
	c-0.316-0.133-0.668-0.203-1.051-0.203s-0.732,0.07-1.051,0.207c-0.314,0.137-0.592,0.322-0.821,0.557
	c-0.231,0.234-0.411,0.507-0.541,0.816c-0.126,0.309-0.19,0.639-0.19,0.988v0.014c0,0.353,0.064,0.682,0.19,0.992
	c0.13,0.309,0.308,0.578,0.532,0.812c0.229,0.229,0.5,0.414,0.817,0.549c0.315,0.135,0.665,0.203,1.048,0.203
	C161.65,53.57,162,53.5,162.316,53.363 M160.604,52.627c-0.207-0.096-0.385-0.223-0.533-0.381s-0.264-0.346-0.346-0.561
	s-0.125-0.443-0.125-0.687v-0.015c0-0.241,0.043-0.469,0.125-0.682c0.082-0.211,0.196-0.396,0.342-0.557
	c0.146-0.156,0.322-0.283,0.526-0.375s0.431-0.139,0.675-0.139s0.471,0.047,0.678,0.141c0.209,0.096,0.387,0.221,0.535,0.381
	c0.146,0.158,0.264,0.346,0.346,0.561s0.124,0.443,0.124,0.685v0.015c0,0.241-0.042,0.469-0.124,0.682
	c-0.082,0.215-0.196,0.397-0.344,0.559c-0.146,0.158-0.32,0.283-0.525,0.375c-0.205,0.094-0.43,0.139-0.676,0.139
	C161.037,52.768,160.811,52.721,160.604,52.627 M155.447,53.51c0.189-0.041,0.367-0.1,0.527-0.178s0.312-0.172,0.45-0.277
	c0.14-0.104,0.273-0.229,0.4-0.365l-0.562-0.567c-0.212,0.198-0.429,0.356-0.646,0.474c-0.218,0.115-0.479,0.174-0.78,0.174
	c-0.236,0-0.455-0.045-0.656-0.14c-0.201-0.092-0.375-0.219-0.521-0.379c-0.147-0.16-0.263-0.351-0.341-0.563
	c-0.082-0.215-0.121-0.443-0.121-0.687v-0.015c0-0.241,0.039-0.469,0.121-0.682c0.078-0.211,0.193-0.396,0.341-0.557
	c0.146-0.156,0.317-0.283,0.521-0.375c0.201-0.092,0.42-0.139,0.656-0.139c0.283,0,0.536,0.057,0.76,0.17
	c0.223,0.115,0.432,0.264,0.633,0.447l0.56-0.646c-0.119-0.115-0.244-0.218-0.377-0.312c-0.134-0.096-0.276-0.179-0.433-0.246
	c-0.156-0.068-0.328-0.121-0.516-0.16c-0.188-0.037-0.393-0.057-0.619-0.057c-0.379,0-0.725,0.069-1.037,0.202
	c-0.311,0.136-0.58,0.32-0.811,0.554c-0.229,0.233-0.405,0.508-0.532,0.815c-0.126,0.312-0.188,0.642-0.188,0.996v0.015
	c0,0.356,0.063,0.688,0.193,1.002c0.127,0.312,0.305,0.582,0.531,0.812s0.492,0.409,0.8,0.543c0.308,0.131,0.644,0.198,1.007,0.198
	C155.043,53.57,155.255,53.549,155.447,53.51 M145.729,53.484h0.867v-3.533l2.732,3.533h0.729v-4.967h-0.863v3.434l-2.655-3.434
	h-0.81V53.484z M138.537,53.484h0.893l0.512-1.199h2.35l0.503,1.199h0.922l-2.185-5.002h-0.809L138.537,53.484z M140.262,51.512
	l0.852-1.986l0.857,1.986H140.262z M134.117,53.52h0.766l2.064-5.002h-0.944l-1.487,3.818l-1.498-3.818h-0.966L134.117,53.52z
	 M123.467,53.484h0.866v-2.021h2.505v-0.789h-2.505v-1.369h2.824v-0.787h-3.69V53.484L123.467,53.484z M119.693,53.363
	c0.318-0.137,0.592-0.322,0.824-0.559c0.229-0.232,0.41-0.505,0.537-0.814c0.129-0.311,0.19-0.639,0.19-0.99v-0.014
	c0-0.351-0.062-0.68-0.19-0.988c-0.127-0.311-0.305-0.582-0.533-0.814c-0.227-0.229-0.498-0.414-0.812-0.549
	c-0.318-0.133-0.668-0.203-1.051-0.203c-0.385,0-0.733,0.07-1.051,0.207s-0.592,0.322-0.822,0.557
	c-0.232,0.234-0.411,0.507-0.539,0.816c-0.128,0.309-0.191,0.639-0.191,0.988v0.014c0,0.353,0.063,0.682,0.191,0.992
	c0.128,0.309,0.304,0.578,0.531,0.812c0.226,0.229,0.498,0.414,0.815,0.549c0.315,0.135,0.666,0.203,1.05,0.203
	C119.025,53.57,119.376,53.5,119.693,53.363 M117.979,52.627c-0.207-0.096-0.385-0.223-0.533-0.381
	c-0.147-0.158-0.264-0.346-0.346-0.561s-0.123-0.443-0.123-0.687v-0.015c0-0.241,0.041-0.469,0.123-0.682
	c0.082-0.211,0.196-0.396,0.344-0.557c0.146-0.156,0.32-0.283,0.524-0.375c0.205-0.092,0.431-0.139,0.675-0.139
	c0.246,0,0.472,0.047,0.68,0.141c0.207,0.096,0.385,0.221,0.533,0.381c0.147,0.158,0.263,0.346,0.346,0.561s0.124,0.443,0.124,0.685
	v0.015c0,0.241-0.041,0.469-0.124,0.682c-0.083,0.215-0.196,0.397-0.344,0.559c-0.146,0.158-0.32,0.283-0.524,0.375
	c-0.205,0.094-0.431,0.139-0.675,0.139C118.412,52.768,118.186,52.721,117.979,52.627 M106.773,53.484h0.865v-1.441l0.773-0.793
	l1.695,2.234h1.058l-2.157-2.832l2.065-2.135h-1.072l-2.362,2.496v-2.496h-0.865V53.484L106.773,53.484z M99.58,53.484h0.895
	l0.51-1.199h2.35l0.505,1.199h0.922l-2.186-5.002h-0.81L99.58,53.484z M101.305,51.512l0.853-1.986l0.858,1.986H101.305z
	 M94.089,53.484H97.8v-0.787h-2.845v-1.326h2.49v-0.789h-2.49v-1.277h2.811v-0.787h-3.677V53.484z M88.187,53.484h0.866v-1.599
	h0.988c0.275,0,0.533-0.034,0.775-0.108c0.241-0.072,0.452-0.18,0.632-0.322c0.18-0.143,0.322-0.318,0.428-0.529
	c0.104-0.209,0.156-0.455,0.156-0.734v-0.014c0-0.252-0.044-0.479-0.131-0.682c-0.088-0.203-0.213-0.377-0.376-0.523
	c-0.163-0.146-0.362-0.26-0.596-0.338c-0.234-0.078-0.495-0.117-0.784-0.117h-1.958V53.484L88.187,53.484z M89.053,51.102v-1.797
	h1.017c0.328,0,0.589,0.074,0.783,0.225c0.195,0.15,0.292,0.373,0.292,0.666v0.015c0,0.263-0.096,0.478-0.288,0.644
	c-0.192,0.164-0.455,0.25-0.787,0.25h-1.017V51.102z M79.077,53.484h3.71v-0.787h-2.845v-1.326h2.49v-0.789h-2.49v-1.277h2.81
	v-0.787h-3.675V53.484z M72.522,53.484h0.866v-2.094h2.383v2.094h0.866v-4.967h-0.866v2.063h-2.383v-2.063h-0.866V53.484z
	 M67.982,53.484h0.879v-4.156h1.575v-0.811h-4.03v0.811h1.576V53.484z"/>
<path fill="#9E9E9E" d="M173.531,29.25h15.4v-3.966H177.93v-4.256h9.555v-3.965h-9.555v-4.11h10.854V8.987h-15.255V29.25H173.531z
	 M165.248,29.12c0.902-0.279,1.682-0.685,2.333-1.216c0.651-0.531,1.16-1.188,1.524-1.969c0.363-0.781,0.547-1.673,0.547-2.676V23.2
	c0-0.887-0.143-1.649-0.422-2.286c-0.28-0.637-0.696-1.191-1.246-1.664c-0.555-0.473-1.23-0.878-2.033-1.216
	c-0.803-0.338-1.717-0.643-2.742-0.912c-0.872-0.233-1.593-0.435-2.161-0.608c-0.571-0.173-1.022-0.357-1.353-0.55
	c-0.327-0.192-0.557-0.41-0.682-0.65c-0.125-0.243-0.188-0.526-0.188-0.855V14.4c0-0.501,0.217-0.922,0.65-1.26
	c0.436-0.337,1.086-0.506,1.955-0.506c0.866,0,1.735,0.179,2.604,0.535c0.866,0.358,1.756,0.846,2.663,1.462l2.316-3.358
	c-1.045-0.829-2.187-1.467-3.432-1.911c-1.246-0.443-2.609-0.666-4.098-0.666c-1.041,0-1.996,0.145-2.859,0.435
	c-0.867,0.289-1.609,0.704-2.232,1.245s-1.107,1.182-1.453,1.924c-0.344,0.743-0.518,1.578-0.518,2.505v0.058
	c0,1.004,0.16,1.842,0.479,2.518c0.32,0.676,0.771,1.241,1.352,1.694c0.58,0.453,1.286,0.835,2.118,1.143
	c0.833,0.308,1.761,0.589,2.786,0.84c0.852,0.211,1.543,0.416,2.076,0.607c0.531,0.193,0.947,0.387,1.248,0.579
	c0.299,0.193,0.502,0.401,0.607,0.621c0.107,0.223,0.161,0.479,0.161,0.768v0.058c0,0.598-0.257,1.066-0.769,1.403
	c-0.512,0.338-1.229,0.507-2.156,0.507c-1.157,0-2.225-0.223-3.198-0.666c-0.974-0.444-1.925-1.042-2.853-1.794l-2.633,3.155
	c1.215,1.1,2.565,1.916,4.053,2.447c1.484,0.531,3,0.796,4.545,0.796C163.343,29.54,164.344,29.4,165.248,29.12 M145.539,29.003
	c1.102-0.375,2.035-0.945,2.809-1.708c0.771-0.762,1.364-1.712,1.779-2.851c0.416-1.139,0.623-2.48,0.623-4.024V8.987h-4.459v11.608
	c0,1.62-0.387,2.836-1.157,3.646c-0.772,0.811-1.844,1.216-3.213,1.216s-2.442-0.419-3.213-1.259
	c-0.772-0.84-1.158-2.089-1.158-3.749V8.987h-4.458v11.579c0,2.992,0.782,5.239,2.346,6.745c1.562,1.505,3.705,2.258,6.426,2.258
	C143.214,29.569,144.438,29.379,145.539,29.003 M123.266,28.772c1.321-0.55,2.459-1.303,3.416-2.257
	c0.953-0.956,1.701-2.066,2.241-3.33c0.542-1.263,0.812-2.619,0.812-4.066v-0.058c0-1.447-0.266-2.803-0.797-4.067
	c-0.529-1.264-1.272-2.365-2.228-3.3c-0.955-0.937-2.09-1.68-3.401-2.229c-1.312-0.55-2.75-0.825-4.312-0.825
	c-1.563,0-3.008,0.275-4.328,0.825c-1.323,0.55-2.46,1.303-3.416,2.257c-0.956,0.957-1.703,2.066-2.245,3.329
	c-0.54,1.265-0.811,2.621-0.811,4.068v0.058c0,1.446,0.267,2.803,0.797,4.067c0.531,1.264,1.273,2.363,2.229,3.3
	c0.957,0.937,2.09,1.679,3.401,2.229c1.312,0.551,2.749,0.825,4.312,0.825C120.501,29.597,121.943,29.323,123.266,28.772
	 M116.521,24.98c-0.744-0.338-1.391-0.795-1.94-1.375c-0.549-0.579-0.976-1.254-1.272-2.025c-0.3-0.772-0.449-1.593-0.449-2.461
	v-0.058c0-0.869,0.149-1.684,0.449-2.447c0.299-0.761,0.713-1.432,1.244-2.012c0.53-0.579,1.168-1.032,1.911-1.36
	c0.742-0.328,1.567-0.493,2.474-0.493c0.89,0,1.709,0.17,2.461,0.508c0.752,0.337,1.403,0.795,1.955,1.374
	c0.551,0.58,0.976,1.254,1.272,2.026c0.3,0.772,0.449,1.593,0.449,2.461v0.058c0,0.869-0.149,1.684-0.449,2.445
	c-0.298,0.763-0.714,1.433-1.244,2.012c-0.53,0.579-1.173,1.032-1.926,1.361c-0.752,0.329-1.572,0.492-2.459,0.492
	C118.088,25.486,117.264,25.318,116.521,24.98 M88.167,29.25h4.457v-6.485h3.444h0.06l4.341,6.485h5.211l-4.951-7.237
	c1.295-0.482,2.342-1.24,3.143-2.273c0.801-1.032,1.202-2.368,1.202-4.008v-0.058c0-1.93-0.579-3.474-1.738-4.631
	c-1.37-1.369-3.337-2.055-5.903-2.055h-9.264L88.167,29.25L88.167,29.25z M92.624,18.83v-5.819h4.431c1.1,0,1.959,0.241,2.575,0.723
	c0.617,0.483,0.925,1.207,0.925,2.172v0.057c0,0.869-0.293,1.563-0.882,2.084c-0.588,0.521-1.433,0.783-2.532,0.783H92.624z
	 M80.162,28.656c1.438-0.626,2.678-1.385,3.72-2.271v-8.801h-8.8v3.851h4.487v2.916c-1.139,0.815-2.538,1.224-4.197,1.224
	c-0.908,0-1.733-0.159-2.476-0.479c-0.743-0.318-1.39-0.768-1.939-1.348c-0.55-0.581-0.976-1.262-1.274-2.045
	c-0.299-0.784-0.449-1.639-0.449-2.567v-0.058c0-0.871,0.149-1.687,0.449-2.452c0.299-0.764,0.714-1.431,1.245-2.002
	c0.531-0.571,1.148-1.025,1.852-1.363c0.705-0.339,1.462-0.509,2.273-0.509c0.578,0,1.11,0.05,1.592,0.146
	c0.482,0.097,0.931,0.232,1.346,0.406c0.416,0.173,0.815,0.385,1.202,0.636c0.386,0.252,0.772,0.541,1.158,0.869l2.808-3.387
	c-0.521-0.444-1.062-0.84-1.622-1.187c-0.559-0.348-1.157-0.638-1.794-0.869c-0.637-0.231-1.327-0.41-2.069-0.535
	c-0.744-0.125-1.569-0.188-2.476-0.188c-1.544,0-2.962,0.275-4.255,0.825c-1.293,0.55-2.412,1.303-3.358,2.257
	c-0.946,0.957-1.684,2.066-2.214,3.329c-0.53,1.265-0.796,2.621-0.796,4.068v0.058c0,1.504,0.26,2.894,0.782,4.168
	c0.521,1.272,1.25,2.373,2.185,3.3c0.937,0.926,2.055,1.649,3.358,2.17c1.303,0.521,2.745,0.782,4.328,0.782
	C77.08,29.597,78.725,29.283,80.162,28.656"/>
<path fill="#9E9E9E" d="M178.092,45.014h2.604v-7.627l5.812,7.627h2.246V33.016h-2.607v7.387l-5.621-7.387h-2.435L178.092,45.014
	L178.092,45.014z M167.359,45.014h2.64V33.016h-2.64V45.014L167.359,45.014z M148.626,45.014h2.69l1.099-2.69h5.073l1.097,2.69
	h2.761l-5.143-12.086h-2.436L148.626,45.014z M153.355,39.992l1.597-3.893l1.594,3.893H153.355z M138.525,45.014h2.641V35.45h3.65
	v-2.435h-9.941v2.435h3.65V45.014z M118.589,45.014h2.604v-7.627l5.812,7.627h2.246V33.016h-2.605v7.387l-5.621-7.387h-2.437V45.014
	z M108.868,44.869c0.653-0.223,1.207-0.561,1.663-1.012c0.457-0.451,0.81-1.017,1.055-1.688c0.245-0.676,0.369-1.469,0.369-2.383
	v-6.771h-2.641v6.873c0,0.961-0.229,1.68-0.687,2.159s-1.092,0.72-1.903,0.72c-0.811,0-1.445-0.248-1.901-0.744
	c-0.458-0.498-0.687-1.238-0.687-2.222v-6.786h-2.641v6.854c0,1.772,0.463,3.104,1.391,3.994c0.924,0.893,2.192,1.338,3.805,1.338
	C107.491,45.203,108.218,45.092,108.868,44.869 M92.592,44.732c0.783-0.326,1.458-0.771,2.023-1.338
	c0.566-0.564,1.009-1.224,1.328-1.974c0.32-0.748,0.48-1.551,0.48-2.405v-0.033c0-0.859-0.158-1.66-0.471-2.41
	c-0.316-0.748-0.754-1.4-1.32-1.955c-0.567-0.555-1.238-0.994-2.015-1.32c-0.777-0.326-1.629-0.488-2.554-0.488
	c-0.926,0-1.781,0.162-2.563,0.488c-0.783,0.326-1.457,0.771-2.023,1.338c-0.565,0.566-1.008,1.225-1.328,1.971
	c-0.321,0.75-0.48,1.554-0.48,2.41v0.033c0,0.857,0.157,1.66,0.471,2.408c0.315,0.748,0.755,1.4,1.321,1.955
	c0.565,0.553,1.235,0.994,2.013,1.32c0.777,0.324,1.629,0.488,2.555,0.488C90.954,45.221,91.81,45.057,92.592,44.732 M88.598,42.484
	c-0.439-0.197-0.823-0.469-1.148-0.812c-0.326-0.342-0.578-0.742-0.754-1.199c-0.177-0.457-0.265-0.943-0.265-1.457v-0.033
	c0-0.518,0.088-1,0.265-1.45c0.176-0.451,0.422-0.849,0.736-1.191c0.315-0.344,0.692-0.61,1.131-0.805
	c0.44-0.195,0.929-0.293,1.466-0.293c0.525,0,1.012,0.103,1.458,0.301c0.445,0.201,0.831,0.474,1.156,0.813
	c0.326,0.345,0.578,0.744,0.755,1.199c0.176,0.457,0.265,0.943,0.265,1.459v0.033c0,0.514-0.089,0.998-0.265,1.449
	c-0.177,0.451-0.424,0.85-0.738,1.191c-0.315,0.342-0.695,0.61-1.14,0.805c-0.445,0.195-0.932,0.291-1.457,0.291
	C89.526,42.785,89.038,42.686,88.598,42.484 M66.407,45.014h2.605v-7.781l3.343,5.074h0.069l3.377-5.127v7.834h2.605V33.016H75.56
	l-3.154,5.072l-3.154-5.072h-2.846L66.407,45.014L66.407,45.014z"/>
<path fill="#9E9E9E" d="M57.971,29.485C57.971,13.753,45.217,1,29.486,1C13.753,1,1,13.753,1,29.485
	c0,4.167,0.896,8.126,2.504,11.693C6.381,41.623,13.85,39.471,18.275,29.9c3.989-7.6,7.949-18.656,21.571-14.272
	c0,0-7.969-8.436-17.794,0.294C14.485,22.647,10.841,28.984,5.29,30.311c-0.008-0.272-0.015-0.55-0.015-0.826
	c0-13.371,10.839-24.21,24.21-24.21c13.371,0,24.21,10.84,24.21,24.21c0,10.328-6.469,19.144-15.575,22.623
	c1.296-4.528,1.536-10.459,1.055-19.6c-0.744-14.131,8.295-12.946,8.295-12.946c-5.53-3.396-10.31-0.75-12.126,5.215
	c-1.532,5.025-1.381,14.383-3.525,19.051c-3.121,6.793-12.096,10.621-23.403,4.648c3.519,4.836,12.619,9.494,21.069,9.494
	C45.217,57.971,57.971,45.217,57.971,29.485 M33.093,17.082c0.227,1.456,2.24,1.776,3.88-0.417
	C36.257,16.287,34.208,15.745,33.093,17.082"/>
</svg>
