<?xml version="1.0" encoding="utf-8"?>
<!-- Generator: Adobe Illustrator 16.0.0, SVG Export Plug-In . SVG Version: 6.00 Build 0)  -->
<!DOCTYPE svg PUBLIC "-//W3C//DTD SVG 1.1//EN" "http://www.w3.org/Graphics/SVG/1.1/DTD/svg11.dtd">
<svg version="1.1" xmlns="http://www.w3.org/2000/svg" xmlns:xlink="http://www.w3.org/1999/xlink" x="0px" y="0px" width="115px"
	 height="115px" viewBox="0 0 115 115" enable-background="new 0 0 115 115" xml:space="preserve">
<g id="cloudy" display="none">
	<g display="inline">
		<path fill="#1C1B1A" d="M92.475,93.23H22.525C10.104,93.23,0,83.126,0,70.704s10.104-22.525,22.525-22.525
			c1.35,0,2.688,0.121,4.011,0.364C27.923,33.548,40.576,21.77,55.925,21.77c11.001,0,20.994,6.087,26.082,15.695
			c7.151-0.437,13.277,4.479,14.852,11.157C107.211,50.686,115,59.942,115,70.704C115,83.126,104.896,93.23,92.475,93.23z
			 M22.525,54.393c-8.993,0-16.312,7.318-16.312,16.312c0,8.994,7.318,16.312,16.312,16.312h69.949
			c8.993,0,16.312-7.318,16.312-16.312c0-8.398-6.554-15.534-14.922-16.241l-2.697-0.228l-0.146-2.701
			c-0.234-4.417-3.866-7.876-8.263-7.876c-0.57,0-1.18,0.075-1.868,0.236l-2.528,0.583l-1.025-2.385
			c-3.684-8.572-12.088-14.109-21.412-14.109c-12.85,0-23.302,10.453-23.302,23.303c0,0.225,0.018,0.449,0.03,0.67l0.261,5.316
			l-4.466-1.751C26.537,54.772,24.543,54.393,22.525,54.393z"/>
	</g>
</g>
<g id="night">
	<g>
		<path fill="#1C1B1A" d="M53.091,99c-22.887,0-41.5-18.613-41.5-41.503C11.591,34.62,30.204,16,53.091,16
			c5.13,0,10.204,0.963,15.066,2.858l5.432,2.135l-5.432,2.12c-14.3,5.582-23.531,19.078-23.531,34.384
			c0,15.31,9.231,28.817,23.531,34.391l5.432,2.128l-5.432,2.117C63.295,98.037,58.221,99,53.091,99z M53.091,20.566
			c-20.368,0-36.935,16.569-36.935,36.931c0,20.372,16.566,36.927,36.935,36.927c2.678,0,5.341-0.285,7.941-0.875
			c-12.913-7.297-20.98-20.876-20.98-36.052c0-15.173,8.067-28.751,20.978-36.046C58.431,20.862,55.769,20.566,53.091,20.566z"/>
		<path fill="#1C1B1A" d="M97.257,61.287l-9.932-5.224l-9.928,5.224l1.884-11.061l-8.038-7.833l11.108-1.614l4.974-10.068
			L92.3,40.779l11.109,1.614l-8.039,7.833L97.257,61.287z M87.325,50.908l3.868,2.033l-0.742-4.308l3.146-3.058l-4.34-0.623
			l-1.933-3.927l-1.932,3.927l-4.339,0.623l3.145,3.058l-0.741,4.308L87.325,50.908z"/>
		<path fill="#1C1B1A" d="M58.546,76.597l0.938-7.109l-5.34-4.797l7.043-1.313l2.919-6.547l3.425,6.302l7.131,0.731l-4.924,5.21
			l1.499,7.025l-6.484-3.08L58.546,76.597z M60.487,66.474l2.078,1.866l-0.361,2.778l2.419-1.403l2.528,1.199l-0.587-2.733
			l1.917-2.029l-2.77-0.282l-1.347-2.46l-1.136,2.562L60.487,66.474z"/>
	</g>
</g>
<g id="cloudy-night" display="none">
	<path display="inline" fill="#1C1B1A" d="M99.808,52.352c-1.319-5.52-6.444-9.578-12.438-9.222
		c-4.261-7.941-12.629-12.973-21.842-12.973c-12.855,0-23.451,9.735-24.612,22.129c-1.108-0.2-2.229-0.301-3.359-0.301
		c-1.39,0-2.74,0.159-4.045,0.442c1.814-13.013,10.523-24.08,23.24-28.976l5.465-2.104l-5.465-2.109
		c-4.876-1.878-9.961-2.833-15.111-2.833C18.679,16.404,0,34.839,0,57.498c0,22.66,18.679,41.098,41.639,41.098
		c5.15,0,10.235-0.955,15.111-2.834l5.463-2.105l-5.463-2.107c-1.703-0.656-3.343-1.438-4.919-2.327h44.304
		c10.402,0,18.864-8.351,18.864-18.618C115,61.708,108.478,54.057,99.808,52.352z M49.63,93.196c-2.627,0.582-5.3,0.876-7.991,0.876
		c-20.432,0-37.055-16.407-37.055-36.574c0-20.166,16.623-36.57,37.055-36.57c2.686,0,5.351,0.292,7.974,0.871
		C37.622,28.485,29.809,40.508,28.708,54.17c-5.954,3.135-10.017,9.321-10.017,16.434c0,10.268,8.461,18.618,18.864,18.618h6.241
		C45.633,90.711,47.578,92.046,49.63,93.196z M96.136,84.085h-58.58c-7.531,0-13.66-6.048-13.66-13.481s6.129-13.482,13.66-13.482
		c1.69,0,3.359,0.314,4.96,0.934l3.741,1.446l-0.219-4.394c-0.01-0.183-0.025-0.368-0.025-0.554
		c0-10.621,8.754-19.261,19.515-19.261c7.808,0,14.847,4.577,17.932,11.661l0.858,1.972l2.117-0.481
		c0.576-0.133,1.087-0.195,1.564-0.195c3.683,0,6.724,2.858,6.92,6.51l0.122,2.232L97.3,57.18
		c7.008,0.584,12.496,6.482,12.496,13.424C109.796,78.037,103.667,84.085,96.136,84.085z"/>
</g>
<g id="overcast" display="none">
	<path display="inline" fill="#1C1B1A" d="M97.353,46.186c-1.058,0-2.105,0.095-3.142,0.285
		c-1.087-11.747-10.999-20.975-23.023-20.975c-5.598,0-10.844,2.037-14.937,5.51c-3.531-4.901-9.269-7.953-15.41-7.953
		c-6.973,0-13.314,3.801-16.631,9.826c-4.458-0.188-8.299,2.922-9.423,7.079c-6.56,1.454-11.458,7.38-11.458,14.252
		c-0.002,2.632,0.73,5.199,2.05,7.433C2.067,64.852,0,69.335,0,74.301c0,9.73,7.916,17.646,17.646,17.646h54.796
		c7.174,0,13.349-4.31,16.106-10.469h8.804c9.731,0,17.647-7.915,17.647-17.646S107.084,46.186,97.353,46.186z M8.196,54.21
		c0-5.016,3.912-9.272,8.905-9.693l2.113-0.176l0.113-2.118c0.134-2.512,2.196-4.478,4.693-4.478c0.318,0,0.664,0.045,1.056,0.135
		l1.984,0.464l0.806-1.873c2.232-5.193,7.325-8.55,12.974-8.55c4.895,0,9.442,2.607,11.994,6.72
		c-0.618,0.812-1.189,1.661-1.702,2.562c-2.325-0.78-4.78-1.238-7.321-1.238c-12.024,0-21.937,9.227-23.024,20.974
		c-1.035-0.189-2.084-0.285-3.141-0.285c-2.996,0-5.819,0.756-8.293,2.08C8.625,57.353,8.195,55.826,8.196,54.21z M72.442,87.079
		H17.646c-7.047,0-12.778-5.733-12.778-12.778c0-7.046,5.731-12.779,12.778-12.779c1.582,0,3.144,0.298,4.642,0.885l3.51,1.376
		l-0.215-4.157c-0.012-0.179-0.026-0.356-0.026-0.537c0-10.066,8.188-18.256,18.255-18.256c7.304,0,13.888,4.339,16.774,11.054
		l0.804,1.868l1.979-0.457c0.54-0.126,1.02-0.185,1.465-0.185c3.444,0,6.289,2.709,6.472,6.17l0.114,2.116l2.113,0.178
		c6.554,0.554,11.688,6.143,11.688,12.725C85.221,81.346,79.487,87.079,72.442,87.079z M97.353,76.61H89.92
		c0.1-0.758,0.169-1.525,0.169-2.31c0-8.432-6.102-15.684-14.209-17.3c-1.231-5.229-6.048-9.097-11.636-8.74
		c-2.027-3.829-5.059-6.934-8.673-9.07c3.274-5.427,9.16-8.826,15.616-8.826c10.066,0,18.255,8.188,18.255,18.255
		c0,0.164-0.012,0.326-0.023,0.485L89.24,53.3l3.473-1.362c1.498-0.587,3.06-0.884,4.64-0.884c7.046,0,12.779,5.733,12.779,12.778
		C110.132,70.878,104.398,76.61,97.353,76.61z"/>
</g>
<g id="rain-snow" display="none">
	<g display="inline">
		<path fill="#1C1B1A" d="M96.203,26.637c-1.545-6.625-7.572-11.528-14.603-11.067C76.595,6.038,66.771,0,55.952,0
			c-15.094,0-27.536,11.684-28.9,26.559c-1.3-0.241-2.617-0.361-3.943-0.361c-12.213,0-22.15,10.022-22.15,22.345
			c0,12.323,9.938,22.345,22.15,22.345h68.784c12.212,0,22.149-10.022,22.149-22.345C114.042,37.867,106.383,28.684,96.203,26.637z
			 M91.893,64.724H23.108c-8.845,0-16.04-7.26-16.04-16.181c0-8.921,7.195-16.181,16.04-16.181c1.985,0,3.946,0.376,5.827,1.12
			l4.405,1.743l-0.27-5.264c-0.016-0.226-0.033-0.452-0.033-0.68c0-12.747,10.278-23.116,22.914-23.116
			c9.167,0,17.432,5.493,21.057,13.996l1.006,2.366l2.488-0.578c0.675-0.16,1.277-0.235,1.838-0.235
			c4.324,0,7.892,3.431,8.124,7.813l0.141,2.679l2.655,0.226c8.227,0.701,14.671,7.777,14.671,16.111
			C107.932,57.464,100.738,64.724,91.893,64.724z"/>
		<polygon fill="#1C1B1A" points="85.688,88.7 84.197,87.357 82.019,89.816 76.004,89.816 80.259,85.524 83.522,85.708 
			83.636,83.697 82.15,83.613 84.078,81.672 82.667,80.245 80.739,82.189 80.655,80.69 78.66,80.806 78.842,84.104 74.59,88.39 
			74.59,82.325 77.03,80.125 75.699,78.62 74.59,79.619 74.59,76.871 72.591,76.871 72.591,79.619 71.486,78.62 70.156,80.125 
			72.591,82.325 72.591,88.39 68.342,84.104 68.524,80.806 66.528,80.69 66.445,82.189 64.518,80.245 63.106,81.672 65.03,83.613 
			63.551,83.697 63.658,85.708 66.928,85.524 71.18,89.816 65.167,89.816 62.983,87.357 61.497,88.7 62.488,89.816 59.762,89.816 
			59.762,91.833 62.488,91.833 61.497,92.95 62.983,94.292 65.167,91.833 71.18,91.833 66.928,96.122 63.658,95.938 63.551,97.949 
			65.03,98.033 63.106,99.975 64.518,101.401 66.445,99.457 66.528,100.956 68.524,100.842 68.342,97.546 72.591,93.257 
			72.591,99.321 70.156,101.521 71.486,103.026 72.591,102.027 72.591,104.775 74.59,104.775 74.59,102.027 75.699,103.026 
			77.03,101.521 74.59,99.321 74.59,93.257 78.842,97.546 78.66,100.842 80.655,100.956 80.739,99.457 82.667,101.401 
			84.078,99.975 82.15,98.033 83.636,97.949 83.522,95.938 80.259,96.122 76.004,91.833 82.019,91.833 84.197,94.292 85.688,92.95 
			84.698,91.833 87.423,91.833 87.423,89.816 84.698,89.816 		"/>
		<path fill="#1C1B1A" d="M42.966,83.183l-1.449-1.348l-1.461,1.336c-0.433,0.395-10.592,9.806-10.592,19.685
			c0,6.808,5.288,12.145,12.04,12.145s12.04-5.337,12.04-12.145C53.544,93.143,43.398,83.586,42.966,83.183z M41.504,110.647
			c-4.407,0-7.729-3.35-7.729-7.792c0-5.969,5.129-12.214,7.718-14.986c2.592,2.806,7.74,9.117,7.74,14.986
			C49.233,107.298,45.911,110.647,41.504,110.647z"/>
	</g>
</g>
<g id="rain" display="none">
	<g display="inline">
		<path fill="#1C1B1A" d="M96.543,26.637c-1.559-6.625-7.636-11.528-14.73-11.067C76.763,6.038,66.852,0,55.938,0
			C40.712,0,28.161,11.684,26.784,26.559c-1.312-0.241-2.64-0.361-3.978-0.361c-12.321,0-22.346,10.022-22.346,22.345
			c0,12.323,10.024,22.345,22.346,22.345h69.388c12.319,0,22.345-10.022,22.345-22.345C114.539,37.867,106.812,28.684,96.543,26.637
			z M92.194,64.724H22.807c-8.923,0-16.182-7.26-16.182-16.181c0-8.921,7.259-16.181,16.182-16.181c2.003,0,3.98,0.376,5.878,1.12
			l4.444,1.743l-0.272-5.264c-0.016-0.226-0.033-0.452-0.033-0.68c0-12.747,10.369-23.116,23.115-23.116
			c9.248,0,17.585,5.493,21.242,13.996l1.015,2.366l2.51-0.578c0.681-0.16,1.288-0.235,1.854-0.235c4.361,0,7.961,3.431,8.195,7.813
			l0.142,2.679l2.679,0.226c8.299,0.701,14.8,7.777,14.8,16.111C108.375,57.464,101.118,64.724,92.194,64.724z"/>
		<path fill="#1C1B1A" d="M44.396,83.183l-1.462-1.348l-1.474,1.336c-0.437,0.395-10.686,9.806-10.686,19.685
			c0,6.808,5.335,12.145,12.146,12.145s12.146-5.337,12.146-12.145C55.067,93.143,44.832,83.586,44.396,83.183z M42.921,110.647
			c-4.445,0-7.797-3.35-7.797-7.792c0-5.969,5.174-12.214,7.786-14.986c2.614,2.806,7.808,9.117,7.808,14.986
			C50.718,107.298,47.366,110.647,42.921,110.647z"/>
		<path fill="#1C1B1A" d="M73.59,76.257l-1.463-1.348l-1.472,1.336c-0.358,0.322-8.749,8.03-8.749,16.178
			c0,5.725,4.484,10.213,10.209,10.213c5.728,0,10.216-4.488,10.216-10.213C82.331,84.411,73.948,76.585,73.59,76.257z
			 M72.115,98.283c-3.341,0-5.86-2.52-5.86-5.86c0-4.451,3.724-9.141,5.86-11.467c2.402,2.648,5.863,7.355,5.863,11.467
			C77.979,95.764,75.459,98.283,72.115,98.283z"/>
	</g>
</g>
<g id="snow" display="none">
	<g display="inline">
		<g>
			<g>
				<rect x="39.523" y="87.257" fill="#1C1B1A" width="2.005" height="14.163"/>
			</g>
			<polygon fill="#1C1B1A" points="39.858,92.979 37.079,90.492 38.413,88.995 41.193,91.482 			"/>
			
				<rect x="40.913" y="89.122" transform="matrix(0.6658 0.7461 -0.7461 0.6658 81.8984 -0.8661)" fill="#1C1B1A" width="2.005" height="3.73"/>
			<g>
				<g>
					<rect x="39.523" y="100.837" fill="#1C1B1A" width="2.005" height="14.163"/>
				</g>
				
					<rect x="40.051" y="110.267" transform="matrix(0.7453 0.6667 -0.6667 0.7453 84.8659 0.395)" fill="#1C1B1A" width="3.73" height="2.005"/>
				<polygon fill="#1C1B1A" points="38.413,113.262 37.079,111.766 39.858,109.278 41.193,110.774 				"/>
			</g>
			<g>
				<rect x="39.523" y="87.257" fill="#1C1B1A" width="2.005" height="14.163"/>
			</g>
			<polygon fill="#1C1B1A" points="39.858,92.979 37.079,90.492 38.413,88.995 41.193,91.482 			"/>
			
				<rect x="40.913" y="89.122" transform="matrix(0.6658 0.7461 -0.7461 0.6658 81.8984 -0.8661)" fill="#1C1B1A" width="2.005" height="3.73"/>
			<g>
				<g>
					<rect x="39.523" y="100.837" fill="#1C1B1A" width="2.005" height="14.163"/>
				</g>
				
					<rect x="40.051" y="110.267" transform="matrix(0.7453 0.6667 -0.6667 0.7453 84.8659 0.395)" fill="#1C1B1A" width="3.73" height="2.005"/>
				<polygon fill="#1C1B1A" points="38.413,113.262 37.079,111.766 39.858,109.278 41.193,110.774 				"/>
			</g>
			<g>
				<rect x="40.234" y="100.128" fill="#1C1B1A" width="14.163" height="2.005"/>
			</g>
			
				<rect x="49.666" y="97.875" transform="matrix(0.7457 0.6662 -0.6662 0.7457 79.3333 -8.3967)" fill="#1C1B1A" width="2.002" height="3.73"/>
			
				<rect x="48.803" y="101.519" transform="matrix(0.6666 0.7454 -0.7454 0.6666 93.3121 -3.5884)" fill="#1C1B1A" width="3.73" height="2.002"/>
			<g>
				<g>
					<rect x="26.654" y="100.128" fill="#1C1B1A" width="14.163" height="2.005"/>
				</g>
				
					<rect x="29.383" y="100.655" transform="matrix(0.7455 0.6665 -0.6665 0.7455 76.0636 5.84)" fill="#1C1B1A" width="2.003" height="3.73"/>
				
					<rect x="28.52" y="98.738" transform="matrix(0.6669 0.7452 -0.7452 0.6669 84.4445 10.5837)" fill="#1C1B1A" width="3.73" height="2.003"/>
			</g>
			<g>
				<rect x="40.234" y="100.128" fill="#1C1B1A" width="14.163" height="2.005"/>
			</g>
			
				<rect x="49.666" y="97.875" transform="matrix(0.7457 0.6662 -0.6662 0.7457 79.3333 -8.3967)" fill="#1C1B1A" width="2.002" height="3.73"/>
			
				<rect x="48.803" y="101.519" transform="matrix(0.6666 0.7454 -0.7454 0.6666 93.3121 -3.5884)" fill="#1C1B1A" width="3.73" height="2.002"/>
			<g>
				<g>
					<rect x="26.654" y="100.128" fill="#1C1B1A" width="14.163" height="2.005"/>
				</g>
				
					<rect x="29.383" y="100.655" transform="matrix(0.7455 0.6665 -0.6665 0.7455 76.0636 5.84)" fill="#1C1B1A" width="2.003" height="3.73"/>
				
					<rect x="28.52" y="98.738" transform="matrix(0.6669 0.7452 -0.7452 0.6669 84.4445 10.5837)" fill="#1C1B1A" width="3.73" height="2.003"/>
			</g>
			<g>
				<rect x="40.234" y="100.128" fill="#1C1B1A" width="14.163" height="2.005"/>
			</g>
			
				<rect x="49.666" y="97.875" transform="matrix(0.7457 0.6662 -0.6662 0.7457 79.3333 -8.3967)" fill="#1C1B1A" width="2.002" height="3.73"/>
			
				<rect x="48.803" y="101.519" transform="matrix(0.6666 0.7454 -0.7454 0.6666 93.3121 -3.5884)" fill="#1C1B1A" width="3.73" height="2.002"/>
			<g>
				<g>
					<rect x="26.654" y="100.128" fill="#1C1B1A" width="14.163" height="2.005"/>
				</g>
				
					<rect x="29.383" y="100.655" transform="matrix(0.7455 0.6665 -0.6665 0.7455 76.0636 5.84)" fill="#1C1B1A" width="2.003" height="3.73"/>
				
					<rect x="28.52" y="98.738" transform="matrix(0.6669 0.7452 -0.7452 0.6669 84.4445 10.5837)" fill="#1C1B1A" width="3.73" height="2.003"/>
			</g>
			<g>
				<rect x="40.234" y="100.128" fill="#1C1B1A" width="14.163" height="2.005"/>
			</g>
			
				<rect x="49.666" y="97.875" transform="matrix(0.7457 0.6662 -0.6662 0.7457 79.3333 -8.3967)" fill="#1C1B1A" width="2.002" height="3.73"/>
			
				<rect x="48.803" y="101.519" transform="matrix(0.6666 0.7454 -0.7454 0.6666 93.3121 -3.5884)" fill="#1C1B1A" width="3.73" height="2.002"/>
			<g>
				<g>
					<rect x="26.654" y="100.128" fill="#1C1B1A" width="14.163" height="2.005"/>
				</g>
				
					<rect x="29.383" y="100.655" transform="matrix(0.7455 0.6665 -0.6665 0.7455 76.0636 5.84)" fill="#1C1B1A" width="2.003" height="3.73"/>
				
					<rect x="28.52" y="98.738" transform="matrix(0.6669 0.7452 -0.7452 0.6669 84.4445 10.5837)" fill="#1C1B1A" width="3.73" height="2.003"/>
			</g>
			<g>
				<polygon fill="#1C1B1A" points="41.027,102.046 39.612,100.627 49.628,90.611 51.043,92.03 				"/>
			</g>
			
				<rect x="44.848" y="91.972" transform="matrix(0.0557 0.9984 -0.9984 0.0557 136.9389 41.1505)" fill="#1C1B1A" width="3.731" height="2.005"/>
			
				<rect x="46.815" y="93.939" transform="matrix(0.9985 0.0555 -0.0555 0.9985 5.3427 -2.5548)" fill="#1C1B1A" width="3.731" height="2.002"/>
			<g>
				<g>
					
						<rect x="34.722" y="98.849" transform="matrix(0.7064 0.7078 -0.7078 0.7064 85.4706 5.8163)" fill="#1C1B1A" width="2.005" height="14.162"/>
				</g>
				
					<rect x="32.473" y="108.28" transform="matrix(0.0557 0.9984 -0.9984 0.0557 141.537 68.9057)" fill="#1C1B1A" width="3.731" height="2.005"/>
				
					<rect x="30.506" y="106.316" transform="matrix(0.9985 0.0555 -0.0555 0.9985 6.0043 -1.6308)" fill="#1C1B1A" width="3.731" height="2.002"/>
			</g>
			<g>
				<polygon fill="#1C1B1A" points="41.027,102.046 39.612,100.627 49.628,90.611 51.043,92.03 				"/>
			</g>
			
				<rect x="44.848" y="91.972" transform="matrix(0.0557 0.9984 -0.9984 0.0557 136.9389 41.1505)" fill="#1C1B1A" width="3.731" height="2.005"/>
			
				<rect x="46.815" y="93.939" transform="matrix(0.9985 0.0555 -0.0555 0.9985 5.3427 -2.5548)" fill="#1C1B1A" width="3.731" height="2.002"/>
			<g>
				<g>
					
						<rect x="34.722" y="98.849" transform="matrix(0.7064 0.7078 -0.7078 0.7064 85.4706 5.8163)" fill="#1C1B1A" width="2.005" height="14.162"/>
				</g>
				
					<rect x="32.473" y="108.28" transform="matrix(0.0557 0.9984 -0.9984 0.0557 141.537 68.9057)" fill="#1C1B1A" width="3.731" height="2.005"/>
				
					<rect x="30.506" y="106.316" transform="matrix(0.9985 0.0555 -0.0555 0.9985 6.0043 -1.6308)" fill="#1C1B1A" width="3.731" height="2.002"/>
			</g>
			<g>
				
					<rect x="38.247" y="104.928" transform="matrix(0.7072 0.707 -0.707 0.7072 88.1641 -1.0317)" fill="#1C1B1A" width="14.162" height="2.004"/>
			</g>
			
				<rect x="47.68" y="105.451" transform="matrix(0.0551 0.9985 -0.9985 0.0551 153.1512 52.7951)" fill="#1C1B1A" width="2.002" height="3.731"/>
			
				<rect x="45.711" y="107.417" transform="matrix(0.9984 0.0565 -0.0565 0.9984 6.2485 -2.4645)" fill="#1C1B1A" width="2.005" height="3.731"/>
			<g>
				<g>
					
						<rect x="28.642" y="95.326" transform="matrix(0.7071 0.7071 -0.7071 0.7071 78.5781 2.9529)" fill="#1C1B1A" width="14.164" height="2.005"/>
				</g>
				
					<rect x="31.371" y="93.074" transform="matrix(0.0556 0.9985 -0.9985 0.0556 125.3646 57.3393)" fill="#1C1B1A" width="2.002" height="3.731"/>
				
					<rect x="33.336" y="91.108" transform="matrix(0.9984 0.0565 -0.0565 0.9984 5.3074 -1.7915)" fill="#1C1B1A" width="2.005" height="3.731"/>
			</g>
			<g>
				
					<rect x="38.247" y="104.928" transform="matrix(0.7072 0.707 -0.707 0.7072 88.1641 -1.0317)" fill="#1C1B1A" width="14.162" height="2.004"/>
			</g>
			
				<rect x="47.68" y="105.451" transform="matrix(0.0551 0.9985 -0.9985 0.0551 153.1512 52.7951)" fill="#1C1B1A" width="2.002" height="3.731"/>
			
				<rect x="45.711" y="107.417" transform="matrix(0.9984 0.0565 -0.0565 0.9984 6.2485 -2.4645)" fill="#1C1B1A" width="2.005" height="3.731"/>
			<g>
				<g>
					
						<rect x="28.642" y="95.326" transform="matrix(0.7071 0.7071 -0.7071 0.7071 78.5781 2.9529)" fill="#1C1B1A" width="14.164" height="2.005"/>
				</g>
				
					<rect x="31.371" y="93.074" transform="matrix(0.0556 0.9985 -0.9985 0.0556 125.3646 57.3393)" fill="#1C1B1A" width="2.002" height="3.731"/>
				
					<rect x="33.336" y="91.108" transform="matrix(0.9984 0.0565 -0.0565 0.9984 5.3074 -1.7915)" fill="#1C1B1A" width="2.005" height="3.731"/>
			</g>
			<g>
				
					<rect x="38.247" y="104.928" transform="matrix(0.7072 0.707 -0.707 0.7072 88.1641 -1.0317)" fill="#1C1B1A" width="14.162" height="2.004"/>
			</g>
			
				<rect x="47.68" y="105.451" transform="matrix(0.0551 0.9985 -0.9985 0.0551 153.1512 52.7951)" fill="#1C1B1A" width="2.002" height="3.731"/>
			
				<rect x="45.711" y="107.417" transform="matrix(0.9984 0.0565 -0.0565 0.9984 6.2485 -2.4645)" fill="#1C1B1A" width="2.005" height="3.731"/>
			<g>
				<g>
					
						<rect x="28.642" y="95.326" transform="matrix(0.7071 0.7071 -0.7071 0.7071 78.5781 2.9529)" fill="#1C1B1A" width="14.164" height="2.005"/>
				</g>
				
					<rect x="31.371" y="93.074" transform="matrix(0.0556 0.9985 -0.9985 0.0556 125.3646 57.3393)" fill="#1C1B1A" width="2.002" height="3.731"/>
				
					<rect x="33.336" y="91.108" transform="matrix(0.9984 0.0565 -0.0565 0.9984 5.3074 -1.7915)" fill="#1C1B1A" width="2.005" height="3.731"/>
			</g>
			<g>
				
					<rect x="38.247" y="104.928" transform="matrix(0.7072 0.707 -0.707 0.7072 88.1641 -1.0317)" fill="#1C1B1A" width="14.162" height="2.004"/>
			</g>
			
				<rect x="47.68" y="105.451" transform="matrix(0.0551 0.9985 -0.9985 0.0551 153.1512 52.7951)" fill="#1C1B1A" width="2.002" height="3.731"/>
			
				<rect x="45.711" y="107.417" transform="matrix(0.9984 0.0565 -0.0565 0.9984 6.2485 -2.4645)" fill="#1C1B1A" width="2.005" height="3.731"/>
			<g>
				<g>
					
						<rect x="28.642" y="95.326" transform="matrix(0.7071 0.7071 -0.7071 0.7071 78.5781 2.9529)" fill="#1C1B1A" width="14.164" height="2.005"/>
				</g>
				
					<rect x="31.371" y="93.074" transform="matrix(0.0556 0.9985 -0.9985 0.0556 125.3646 57.3393)" fill="#1C1B1A" width="2.002" height="3.731"/>
				
					<rect x="33.336" y="91.108" transform="matrix(0.9984 0.0565 -0.0565 0.9984 5.3074 -1.7915)" fill="#1C1B1A" width="2.005" height="3.731"/>
			</g>
		</g>
		<g>
			<g>
				<rect x="73.709" y="76.428" fill="#1C1B1A" width="2.006" height="14.163"/>
			</g>
			
				<rect x="71.457" y="79.154" transform="matrix(0.7455 0.6665 -0.6665 0.7455 72.0811 -28.4696)" fill="#1C1B1A" width="3.731" height="2.006"/>
			<polygon fill="#1C1B1A" points="75.379,82.148 74.045,80.652 76.824,78.166 78.158,79.662 			"/>
			<g>
				<g>
					<rect x="73.709" y="90.007" fill="#1C1B1A" width="2.006" height="14.163"/>
				</g>
				<polygon fill="#1C1B1A" points="76.824,102.432 74.045,99.945 75.379,98.449 78.158,100.936 				"/>
				
					<rect x="72.319" y="98.575" transform="matrix(0.6661 0.7459 -0.7459 0.6661 99.4045 -21.1497)" fill="#1C1B1A" width="2.006" height="3.731"/>
			</g>
			<g>
				<rect x="73.709" y="76.428" fill="#1C1B1A" width="2.006" height="14.163"/>
			</g>
			
				<rect x="71.457" y="79.154" transform="matrix(0.7455 0.6665 -0.6665 0.7455 72.0811 -28.4696)" fill="#1C1B1A" width="3.731" height="2.006"/>
			<polygon fill="#1C1B1A" points="75.379,82.148 74.045,80.652 76.824,78.166 78.158,79.662 			"/>
			<g>
				<g>
					<rect x="73.709" y="90.007" fill="#1C1B1A" width="2.006" height="14.163"/>
				</g>
				<polygon fill="#1C1B1A" points="76.824,102.432 74.045,99.945 75.379,98.449 78.158,100.936 				"/>
				
					<rect x="72.319" y="98.575" transform="matrix(0.6661 0.7459 -0.7459 0.6661 99.4045 -21.1497)" fill="#1C1B1A" width="2.006" height="3.731"/>
			</g>
			<g>
				<rect x="74.422" y="89.298" fill="#1C1B1A" width="14.16" height="2.005"/>
			</g>
			
				<rect x="83.851" y="87.045" transform="matrix(0.7453 0.6668 -0.6668 0.7453 80.8947 -33.9284)" fill="#1C1B1A" width="2.002" height="3.73"/>
			
				<rect x="82.988" y="90.689" transform="matrix(0.6666 0.7454 -0.7454 0.6666 96.6367 -32.6809)" fill="#1C1B1A" width="3.73" height="2.002"/>
			<g>
				<g>
					<rect x="60.842" y="89.298" fill="#1C1B1A" width="14.16" height="2.005"/>
				</g>
				
					<rect x="63.568" y="89.826" transform="matrix(0.7457 0.6663 -0.6663 0.7457 77.5098 -19.7054)" fill="#1C1B1A" width="2.004" height="3.73"/>
				
					<rect x="62.705" y="87.908" transform="matrix(0.6666 0.7454 -0.7454 0.6666 87.8023 -18.4892)" fill="#1C1B1A" width="3.73" height="2.004"/>
			</g>
			<g>
				<rect x="74.422" y="89.298" fill="#1C1B1A" width="14.16" height="2.005"/>
			</g>
			
				<rect x="83.851" y="87.045" transform="matrix(0.7453 0.6668 -0.6668 0.7453 80.8947 -33.9284)" fill="#1C1B1A" width="2.002" height="3.73"/>
			
				<rect x="82.988" y="90.689" transform="matrix(0.6666 0.7454 -0.7454 0.6666 96.6367 -32.6809)" fill="#1C1B1A" width="3.73" height="2.002"/>
			<g>
				<g>
					<rect x="60.842" y="89.298" fill="#1C1B1A" width="14.16" height="2.005"/>
				</g>
				
					<rect x="63.568" y="89.826" transform="matrix(0.7457 0.6663 -0.6663 0.7457 77.5098 -19.7054)" fill="#1C1B1A" width="2.004" height="3.73"/>
				
					<rect x="62.705" y="87.908" transform="matrix(0.6666 0.7454 -0.7454 0.6666 87.8023 -18.4892)" fill="#1C1B1A" width="3.73" height="2.004"/>
			</g>
			<g>
				<rect x="74.422" y="89.298" fill="#1C1B1A" width="14.16" height="2.005"/>
			</g>
			
				<rect x="83.851" y="87.045" transform="matrix(0.7453 0.6668 -0.6668 0.7453 80.8947 -33.9284)" fill="#1C1B1A" width="2.002" height="3.73"/>
			
				<rect x="82.988" y="90.689" transform="matrix(0.6666 0.7454 -0.7454 0.6666 96.6367 -32.6809)" fill="#1C1B1A" width="3.73" height="2.002"/>
			<g>
				<g>
					<rect x="60.842" y="89.298" fill="#1C1B1A" width="14.16" height="2.005"/>
				</g>
				
					<rect x="63.568" y="89.826" transform="matrix(0.7457 0.6663 -0.6663 0.7457 77.5098 -19.7054)" fill="#1C1B1A" width="2.004" height="3.73"/>
				
					<rect x="62.705" y="87.908" transform="matrix(0.6666 0.7454 -0.7454 0.6666 87.8023 -18.4892)" fill="#1C1B1A" width="3.73" height="2.004"/>
			</g>
			<g>
				<rect x="74.422" y="89.298" fill="#1C1B1A" width="14.16" height="2.005"/>
			</g>
			
				<rect x="83.851" y="87.045" transform="matrix(0.7453 0.6668 -0.6668 0.7453 80.8947 -33.9284)" fill="#1C1B1A" width="2.002" height="3.73"/>
			
				<rect x="82.988" y="90.689" transform="matrix(0.6666 0.7454 -0.7454 0.6666 96.6367 -32.6809)" fill="#1C1B1A" width="3.73" height="2.002"/>
			<g>
				<g>
					<rect x="60.842" y="89.298" fill="#1C1B1A" width="14.16" height="2.005"/>
				</g>
				
					<rect x="63.568" y="89.826" transform="matrix(0.7457 0.6663 -0.6663 0.7457 77.5098 -19.7054)" fill="#1C1B1A" width="2.004" height="3.73"/>
				
					<rect x="62.705" y="87.908" transform="matrix(0.6666 0.7454 -0.7454 0.6666 87.8023 -18.4892)" fill="#1C1B1A" width="3.73" height="2.004"/>
			</g>
			<g>
				<polygon fill="#1C1B1A" points="75.211,91.216 73.799,89.798 83.812,79.782 85.23,81.2 				"/>
			</g>
			
				<rect x="79.033" y="81.143" transform="matrix(0.0555 0.9985 -0.9985 0.0555 158.4278 -3.187)" fill="#1C1B1A" width="3.731" height="2.003"/>
			
				<rect x="81" y="83.109" transform="matrix(0.9985 0.0552 -0.0552 0.9985 4.77 -4.4467)" fill="#1C1B1A" width="3.732" height="2.002"/>
			<g>
				<g>
					
						<rect x="68.908" y="88.018" transform="matrix(0.7071 0.7071 -0.7071 0.7071 87.7224 -21.5805)" fill="#1C1B1A" width="2.005" height="14.164"/>
				</g>
				<polygon fill="#1C1B1A" points="67.629,100.373 67.42,96.647 69.422,96.533 69.627,100.259 				"/>
				
					<rect x="64.691" y="95.486" transform="matrix(0.9985 0.0552 -0.0552 0.9985 5.4285 -3.5274)" fill="#1C1B1A" width="3.732" height="2.002"/>
			</g>
			<g>
				<polygon fill="#1C1B1A" points="75.211,91.216 73.799,89.798 83.812,79.782 85.23,81.2 				"/>
			</g>
			
				<rect x="79.033" y="81.143" transform="matrix(0.0555 0.9985 -0.9985 0.0555 158.4278 -3.187)" fill="#1C1B1A" width="3.731" height="2.003"/>
			
				<rect x="81" y="83.109" transform="matrix(0.9985 0.0552 -0.0552 0.9985 4.77 -4.4467)" fill="#1C1B1A" width="3.732" height="2.002"/>
			<g>
				<g>
					
						<rect x="68.908" y="88.018" transform="matrix(0.7071 0.7071 -0.7071 0.7071 87.7224 -21.5805)" fill="#1C1B1A" width="2.005" height="14.164"/>
				</g>
				<polygon fill="#1C1B1A" points="67.629,100.373 67.42,96.647 69.422,96.533 69.627,100.259 				"/>
				
					<rect x="64.691" y="95.486" transform="matrix(0.9985 0.0552 -0.0552 0.9985 5.4285 -3.5274)" fill="#1C1B1A" width="3.732" height="2.002"/>
			</g>
			<g>
				<polygon fill="#1C1B1A" points="83.812,100.815 73.799,90.803 75.211,89.385 85.23,99.397 				"/>
			</g>
			
				<rect x="81.865" y="94.621" transform="matrix(0.0556 0.9985 -0.9985 0.0556 174.5965 8.3841)" fill="#1C1B1A" width="2.002" height="3.732"/>
			
				<rect x="79.897" y="96.587" transform="matrix(0.9984 0.057 -0.057 0.9984 5.7471 -4.4538)" fill="#1C1B1A" width="2.003" height="3.731"/>
			<g>
				<g>
					
						<rect x="62.828" y="84.496" transform="matrix(0.7072 0.707 -0.707 0.7072 80.9227 -24.3936)" fill="#1C1B1A" width="14.166" height="2.005"/>
				</g>
				
					<rect x="65.557" y="82.244" transform="matrix(0.0556 0.9985 -0.9985 0.0556 146.8369 12.9787)" fill="#1C1B1A" width="2.002" height="3.732"/>
				<polygon fill="#1C1B1A" points="69.422,84.064 67.42,83.95 67.629,80.225 69.627,80.339 				"/>
			</g>
			<g>
				<polygon fill="#1C1B1A" points="83.812,100.815 73.799,90.803 75.211,89.385 85.23,99.397 				"/>
			</g>
			
				<rect x="81.865" y="94.621" transform="matrix(0.0556 0.9985 -0.9985 0.0556 174.5965 8.3841)" fill="#1C1B1A" width="2.002" height="3.732"/>
			
				<rect x="79.897" y="96.587" transform="matrix(0.9984 0.057 -0.057 0.9984 5.7471 -4.4538)" fill="#1C1B1A" width="2.003" height="3.731"/>
			<g>
				<g>
					
						<rect x="62.828" y="84.496" transform="matrix(0.7072 0.707 -0.707 0.7072 80.9227 -24.3936)" fill="#1C1B1A" width="14.166" height="2.005"/>
				</g>
				
					<rect x="65.557" y="82.244" transform="matrix(0.0556 0.9985 -0.9985 0.0556 146.8369 12.9787)" fill="#1C1B1A" width="2.002" height="3.732"/>
				<polygon fill="#1C1B1A" points="69.422,84.064 67.42,83.95 67.629,80.225 69.627,80.339 				"/>
			</g>
			<g>
				<polygon fill="#1C1B1A" points="83.812,100.815 73.799,90.803 75.211,89.385 85.23,99.397 				"/>
			</g>
			
				<rect x="81.865" y="94.621" transform="matrix(0.0556 0.9985 -0.9985 0.0556 174.5965 8.3841)" fill="#1C1B1A" width="2.002" height="3.732"/>
			
				<rect x="79.897" y="96.587" transform="matrix(0.9984 0.057 -0.057 0.9984 5.7471 -4.4538)" fill="#1C1B1A" width="2.003" height="3.731"/>
			<g>
				<g>
					
						<rect x="62.828" y="84.496" transform="matrix(0.7072 0.707 -0.707 0.7072 80.9227 -24.3936)" fill="#1C1B1A" width="14.166" height="2.005"/>
				</g>
				
					<rect x="65.557" y="82.244" transform="matrix(0.0556 0.9985 -0.9985 0.0556 146.8369 12.9787)" fill="#1C1B1A" width="2.002" height="3.732"/>
				<polygon fill="#1C1B1A" points="69.422,84.064 67.42,83.95 67.629,80.225 69.627,80.339 				"/>
			</g>
			<g>
				<polygon fill="#1C1B1A" points="83.812,100.815 73.799,90.803 75.211,89.385 85.23,99.397 				"/>
			</g>
			
				<rect x="81.865" y="94.621" transform="matrix(0.0556 0.9985 -0.9985 0.0556 174.5965 8.3841)" fill="#1C1B1A" width="2.002" height="3.732"/>
			
				<rect x="79.897" y="96.587" transform="matrix(0.9984 0.057 -0.057 0.9984 5.7471 -4.4538)" fill="#1C1B1A" width="2.003" height="3.731"/>
			<g>
				<g>
					
						<rect x="62.828" y="84.496" transform="matrix(0.7072 0.707 -0.707 0.7072 80.9227 -24.3936)" fill="#1C1B1A" width="14.166" height="2.005"/>
				</g>
				
					<rect x="65.557" y="82.244" transform="matrix(0.0556 0.9985 -0.9985 0.0556 146.8369 12.9787)" fill="#1C1B1A" width="2.002" height="3.732"/>
				<polygon fill="#1C1B1A" points="69.422,84.064 67.42,83.95 67.629,80.225 69.627,80.339 				"/>
			</g>
		</g>
		<path fill="#1C1B1A" d="M91.992,70.479H23.007c-12.25,0-22.216-9.965-22.216-22.217c0-12.25,9.966-22.215,22.216-22.215
			c1.33,0,2.651,0.119,3.954,0.358C28.33,11.617,40.809,0,55.947,0C66.797,0,76.65,6.003,81.67,15.48
			c7.055-0.459,13.094,4.416,14.65,11.003c10.207,2.034,17.889,11.165,17.889,21.778C114.209,60.514,104.244,70.479,91.992,70.479z
			 M23.007,32.175c-8.871,0-16.088,7.218-16.088,16.087c0,8.87,7.217,16.088,16.088,16.088h68.985
			c8.871,0,16.088-7.218,16.088-16.088c0-8.285-6.463-15.32-14.717-16.018l-2.656-0.225l-0.145-2.664
			c-0.232-4.356-3.812-7.768-8.15-7.768c-0.561,0-1.162,0.074-1.844,0.232l-2.49,0.575l-1.012-2.353
			C73.432,11.59,65.143,6.129,55.947,6.129c-12.673,0-22.981,10.309-22.981,22.981c0,0.228,0.018,0.452,0.033,0.677l0.271,5.233
			l-4.419-1.732C26.964,32.549,24.998,32.175,23.007,32.175z"/>
	</g>
</g>
<g id="sun-cloud" display="none">
	<path display="inline" fill="#1C1B1A" d="M100.207,57.905c-1.283-5.376-6.301-9.336-12.109-8.981
		c-4.152-7.736-12.297-12.637-21.268-12.637c-4.721,0-9.127,1.352-12.847,3.679c-0.463-0.691-0.973-1.333-1.496-1.971l5.579-5.506
		l-3.582-3.537l-5.532,5.46c-3.788-3.061-8.451-4.949-13.454-5.44v-7.79h-5.067v7.744c-5.065,0.5-9.692,2.487-13.431,5.508
		l-5.554-5.484l-3.583,3.537l5.556,5.484c-3.06,3.691-5.069,8.259-5.576,13.259H0v5.002h7.901c0.503,4.935,2.455,9.507,5.541,13.238
		l-5.576,5.506l3.582,3.537L17,73.031c1.292,1.04,2.725,1.919,4.229,2.701c0.027,9.979,8.254,18.086,18.365,18.086h57.038
		c10.127,0,18.367-8.135,18.367-18.135C115,67.02,108.646,59.566,100.207,57.905z M32.965,33.801c7.001,0,13.349,3.542,17.034,9.312
		c-3.954,3.83-6.595,8.977-7.135,14.729c-1.077-0.195-2.17-0.293-3.27-0.293c-8.28,0-15.295,5.442-17.578,12.893
		c-5.69-3.63-9.236-9.861-9.236-16.71C12.78,42.741,21.835,33.801,32.965,33.801z M96.633,88.815H39.595
		c-7.334,0-13.301-5.892-13.301-13.132s5.967-13.132,13.301-13.132c1.646,0,3.272,0.306,4.832,0.909l3.653,1.414l-0.224-4.272
		c-0.013-0.183-0.027-0.366-0.027-0.553c0-10.345,8.523-18.759,19.001-18.759c7.6,0,14.453,4.458,17.461,11.358l0.834,1.92
		l2.062-0.469c0.561-0.129,1.059-0.19,1.523-0.19c3.588,0,6.547,2.785,6.738,6.342l0.117,2.173l2.199,0.185
		c6.824,0.568,12.168,6.312,12.168,13.075C109.934,82.924,103.967,88.815,96.633,88.815z"/>
</g>
<g id="sunny" display="none">
	<path display="inline" fill="#1C1B1A" d="M114.998,61.076v-7.15H100.52c-0.761-9.224-4.416-17.631-10.075-24.307l10.243-10.243
		l-5.056-5.056L85.389,24.565c-6.676-5.663-15.086-9.322-24.313-10.083V0h-7.15v14.482c-9.228,0.761-17.634,4.42-24.312,10.083
		L19.37,14.318l-5.055,5.055L24.56,29.62c-5.659,6.676-9.315,15.083-10.076,24.307H0.002v7.15h14.482
		c0.761,9.229,4.418,17.635,10.081,24.311L14.318,95.633l5.055,5.057L29.62,90.441c6.675,5.66,15.081,9.316,24.305,10.076V115h7.15
		v-14.482c9.224-0.76,17.631-4.416,24.307-10.076l10.247,10.248l5.055-5.057L90.437,85.387c5.663-6.676,9.322-15.082,10.083-24.311
		H114.998z M57.5,93.549c-19.876,0-36.048-16.172-36.048-36.047c0-19.88,16.172-36.051,36.048-36.051
		c19.88,0,36.051,16.171,36.051,36.051C93.551,77.377,77.38,93.549,57.5,93.549z"/>
</g>
</svg>
